<?xml version="1.0" standalone="no"?><!DOCTYPE svg PUBLIC "-//W3C//DTD SVG 1.1//EN" "http://www.w3.org/Graphics/SVG/1.1/DTD/svg11.dtd"><svg t="1681865899106" class="icon" viewBox="0 0 1024 1024" version="1.1" xmlns="http://www.w3.org/2000/svg" p-id="2647" xmlns:xlink="http://www.w3.org/1999/xlink" width="300" height="300"><path d="M512 128a160 160 0 1 1-160 160A160 160 0 0 1 512 128m0-64a224 224 0 1 0 224 224A224 224 0 0 0 512 64zM704 640a128 128 0 0 1 0 256H320a128 128 0 0 1 0-256h384m0-64H320a192 192 0 0 0 0 384h384a192 192 0 0 0 0-384z" fill="#2c2c2c" p-id="2648"></path></svg>